{
	"asset":{
		"generator":"Khronos glTF Blender I/O v4.0.44",
		"version":"2.0"
	},
	"scene":0,
	"scenes":[
		{
			"name":"Scene",
			"nodes":[
				0
			]
		}
	],
	"nodes":[
		{
			"mesh":0,
			"name":"A812_A"
		}
	],
	"meshes":[
		{
			"name":"A812_A",
			"primitives":[
				{
					"attributes":{
						"POSITION":0,
						"NORMAL":1
					},
					"indices":2
				}
			]
		}
	],
	"accessors":[
		{
			"bufferView":0,
			"componentType":5126,
			"count":3813,
			"max":[
				39.4091796875,
				50.03184127807617,
				-0.02510473132133484
			],
			"min":[
				0.015895813703536987,
				0.03184191882610321,
				-30.845006942749023
			],
			"type":"VEC3"
		},
		{
			"bufferView":1,
			"componentType":5126,
			"count":3813,
			"type":"VEC3"
		},
		{
			"bufferView":2,
			"componentType":5123,
			"count":22926,
			"type":"SCALAR"
		}
	],
	"bufferViews":[
		{
			"buffer":0,
			"byteLength":45756,
			"byteOffset":0,
			"target":34962
		},
		{
			"buffer":0,
			"byteLength":45756,
			"byteOffset":45756,
			"target":34962
		},
		{
			"buffer":0,
			"byteLength":45852,
			"byteOffset":91512,
			"target":34963
		}
	],
	"buffers":[
		{
			"byteLength":137364,
			"uri":"A812_A.bin"
		}
	]
}
